{"glyphs":{":":{"x_min":0,"x_max":340,"ha":340,"o":"m 170 499 q 208 499 234 472 q 261 445 261 408 q 261 370 235 343 q 208 316 170 316 q 132 316 106 343 q 79 370 79 407 q 79 445 106 472 q 133 499 170 499 z m 170 174 q 208 174 235 147 q 261 121 261 83 q 261 45 235 19 q 208 -8 170 -8 q 132 -8 106 19 q 79 45 79 83 q 79 121 106 147 q 132 174 170 174 z"},"$":{"x_min":0,"x_max":660,"ha":660,"o":"m 294 790 l 389 790 l 389 669 q 410 663 424 656 q 438 649 463 634 l 481 669 l 535 669 l 592 448 l 502 422 q 467 513 389 556 l 389 416 q 485 388 529 360 q 573 331 596 289 q 619 248 619 203 q 619 154 592 110 q 564 65 510 35 q 457 5 389 0 l 389 -118 l 294 -118 l 294 8 q 238 21 177 66 l 154 8 l 101 8 l 53 266 l 146 288 q 171 232 195 200 q 218 168 248 145 q 269 127 294 119 l 294 281 q 189 316 150 343 q 111 369 89 409 q 66 450 66 491 q 66 539 94 583 q 123 626 172 652 q 222 678 294 681 z m 294 573 q 254 568 238 556 q 214 539 214 515 q 214 495 231 477 q 249 458 294 442 z m 389 106 q 427 111 449 128 q 472 145 472 173 q 472 198 455 216 q 432 240 389 253 z"},"?":{"x_min":0,"x_max":660,"ha":660,"o":"m 297 207 l 204 207 l 204 393 l 234 393 q 327 393 365 402 q 404 412 421 431 q 438 450 438 475 q 438 525 387 558 q 344 586 293 586 q 267 586 246 574 q 225 562 201 529 q 180 499 166 490 q 146 479 125 479 q 93 479 72 500 q 51 521 51 552 q 51 614 124 653 q 196 693 292 693 q 381 693 455 659 q 529 625 564 572 q 600 520 600 460 q 600 396 560 349 q 521 301 451 280 q 405 266 297 264 z m 250 174 q 289 174 315 147 q 342 121 342 83 q 342 45 315 19 q 289 -8 250 -8 q 213 -8 186 19 q 160 45 160 83 q 160 121 186 147 q 213 174 250 174 z"},"<":{"x_min":0,"x_max":600,"ha":600,"o":"m 542 166 l 542 72 l 58 299 l 58 382 l 542 609 l 542 515 l 179 340 z"},"'":{"x_min":0,"x_max":240,"ha":240,"o":"m 101 413 l 70 577 q 63 609 63 623 q 63 653 80 673 q 97 693 120 693 q 143 693 160 673 q 176 653 176 622 q 176 607 172 588 l 170 577 l 139 413 z"},"=":{"x_min":0,"x_max":600,"ha":600,"o":"m 542 388 l 58 388 l 58 479 l 542 479 z m 542 201 l 58 201 l 58 293 l 542 293 z"},"a":{"x_min":0,"x_max":580,"ha":580,"o":"m 333 295 l 333 332 q 333 364 327 376 q 322 388 308 396 q 293 404 272 404 q 256 404 243 399 q 230 394 222 385 q 214 377 204 353 q 191 323 173 310 q 154 296 129 296 q 98 296 78 316 q 58 335 58 364 q 58 397 79 422 q 106 456 160 478 q 214 499 282 499 q 350 499 398 477 q 445 455 464 425 q 483 394 483 332 l 483 157 q 483 125 486 115 q 490 106 501 100 q 512 93 526 93 q 540 93 562 101 l 562 5 q 521 -8 483 -8 q 438 -8 406 7 q 375 21 353 51 q 304 19 264 6 q 225 -8 188 -8 q 118 -8 75 31 q 32 71 32 128 q 32 161 47 188 q 62 216 91 236 q 121 257 182 273 q 244 289 333 295 z m 333 214 q 269 205 242 196 q 216 186 205 172 q 193 157 193 142 q 193 123 208 109 q 223 96 248 96 q 264 96 285 104 q 306 113 333 129 z"},"L":{"x_min":0,"x_max":640,"ha":640,"o":"m 40 681 l 373 681 l 373 587 l 344 587 q 319 587 313 584 q 301 580 296 570 q 291 560 291 538 l 291 148 q 291 125 293 120 q 295 114 302 111 q 309 108 328 108 q 394 108 433 125 q 473 142 505 180 q 537 218 560 283 l 650 252 l 560 0 l 40 0 l 40 94 l 73 94 q 93 94 103 100 q 113 105 118 114 q 123 123 123 146 l 123 531 q 123 556 118 566 q 113 577 105 582 q 96 587 76 587 l 40 587 z"},"3":{"x_min":0,"x_max":660,"ha":660,"o":"m 174 462 l 74 462 q 73 473 73 480 q 73 543 102 589 q 130 635 191 664 q 252 693 330 693 q 404 693 463 667 q 522 641 552 600 q 581 559 581 515 q 581 481 562 448 q 544 415 514 392 q 493 377 453 361 q 489 357 518 344 q 547 330 568 308 q 589 287 600 260 q 610 233 610 202 q 610 146 577 97 q 544 48 479 18 q 413 -12 327 -12 q 242 -12 176 17 q 110 45 77 88 q 44 132 44 175 q 44 208 67 231 q 91 254 124 254 q 156 254 180 232 q 196 218 207 184 q 221 140 233 125 q 244 111 270 100 q 296 88 323 88 q 354 88 383 104 q 412 119 426 142 q 439 165 439 198 q 439 258 393 286 q 357 308 282 308 l 250 308 l 250 402 l 282 402 q 342 402 367 411 q 393 420 408 441 q 422 461 422 485 q 422 518 398 542 q 367 571 304 571 q 262 571 235 559 q 208 546 193 523 q 177 500 174 462 z"},";":{"x_min":0,"x_max":340,"ha":340,"o":"m 170 499 q 207 499 234 472 q 261 445 261 408 q 261 370 234 343 q 208 316 169 316 q 132 316 105 343 q 79 370 79 407 q 79 445 106 472 q 133 499 170 499 z m 134 -185 l 80 -124 q 143 -66 160 -44 q 176 -22 188 12 q 179 6 169 3 q 160 0 150 0 q 122 0 101 23 q 80 46 80 80 q 80 120 108 146 q 136 171 173 171 q 212 171 245 142 q 285 106 285 44 q 285 -13 250 -67 q 207 -136 134 -185 z"},"J":{"x_min":0,"x_max":640,"ha":640,"o":"m 286 681 l 617 681 l 617 587 l 589 587 q 561 587 552 582 q 543 578 540 568 q 536 558 536 523 l 536 250 q 536 187 529 157 q 520 115 484 74 q 449 33 394 11 q 339 -12 263 -12 q 182 -12 124 16 q 67 44 34 93 q 1 142 1 193 q 1 241 29 271 q 57 301 98 301 q 123 301 140 292 q 158 282 168 263 q 179 244 179 222 l 179 190 q 179 163 191 139 q 201 121 222 109 q 243 98 270 98 q 305 98 330 119 q 354 139 362 173 q 367 192 367 254 l 367 537 q 367 558 365 564 q 361 577 351 582 q 342 587 318 587 l 286 587 z"},"V":{"x_min":0,"x_max":720,"ha":720,"o":"m 1 681 l 325 681 l 325 587 l 314 587 q 284 587 275 584 q 267 582 261 574 q 255 566 255 558 q 255 548 266 516 l 387 177 l 515 525 q 524 551 524 561 q 524 574 515 581 q 506 587 477 587 l 456 587 l 456 681 l 719 681 l 719 587 q 687 587 675 580 q 658 568 641 525 l 437 0 l 284 0 l 76 528 q 63 560 57 569 q 50 578 37 583 q 25 587 1 587 z"},"\"":{"x_min":0,"x_max":420,"ha":420,"o":"m 101 413 l 70 577 q 63 609 63 622 q 63 653 80 673 q 97 693 120 693 q 143 693 160 673 q 176 652 176 622 q 176 604 172 588 q 171 582 170 577 l 139 413 z m 281 413 l 250 577 q 244 609 244 622 q 244 653 260 673 q 277 693 300 693 q 323 693 340 673 q 356 652 356 622 q 356 604 353 588 q 351 582 350 577 l 319 413 z"},"7":{"x_min":0,"x_max":660,"ha":660,"o":"m 107 702 l 172 702 l 179 681 l 634 681 l 634 587 q 569 524 530 468 q 490 413 456 338 q 422 264 405 198 q 389 133 375 0 l 200 0 q 212 121 240 201 q 268 281 329 375 q 391 468 459 534 l 237 534 q 194 534 181 529 q 168 524 160 514 q 152 503 143 465 l 132 426 l 39 448 z"},"S":{"x_min":0,"x_max":660,"ha":660,"o":"m 551 681 l 610 453 l 519 427 q 474 508 416 546 q 358 584 293 584 q 251 584 227 567 q 203 550 203 529 q 203 505 225 484 q 247 464 304 448 l 435 410 q 544 378 590 327 q 636 274 636 205 q 636 117 566 56 q 487 -12 371 -12 q 316 -12 271 2 q 226 16 176 49 l 155 0 l 82 0 l 34 264 l 125 286 q 157 206 225 152 q 293 98 375 98 q 412 98 436 107 q 460 116 472 133 q 484 149 484 167 q 484 196 456 217 q 427 238 355 259 l 242 292 q 216 299 172 320 q 127 340 104 362 q 80 384 64 418 q 49 453 49 491 q 49 545 79 591 q 109 636 169 665 q 229 693 303 693 q 391 693 462 647 l 481 681 z"},"}":{"x_min":0,"x_max":320,"ha":320,"o":"m 7 -187 l 7 -165 q 42 -158 61 -145 q 80 -132 91 -113 q 102 -93 102 -72 q 102 -41 91 7 q 79 58 79 92 q 79 130 101 166 q 124 201 160 223 q 185 238 238 252 q 180 270 154 287 q 116 312 97 346 q 77 380 77 414 q 77 441 89 490 q 101 540 101 574 q 101 598 90 618 q 80 639 61 651 q 43 663 7 670 l 7 693 q 50 693 68 688 q 105 681 138 658 q 171 636 190 603 q 208 569 208 536 q 208 504 193 446 q 182 402 182 370 q 182 327 210 298 q 233 275 278 268 l 278 238 q 244 232 225 219 q 206 207 194 182 q 182 158 182 132 q 182 100 193 59 q 208 0 208 -28 q 208 -56 194 -85 q 180 -115 154 -138 q 128 -161 94 -173 q 61 -185 7 -187 z"},"Z":{"x_min":0,"x_max":640,"ha":640,"o":"m 593 681 l 593 587 l 233 106 l 275 106 q 363 106 407 122 q 450 139 487 180 q 524 222 544 282 l 634 252 l 544 0 l 24 0 l 24 94 l 386 574 l 330 574 q 272 574 237 560 q 202 546 176 520 q 150 493 102 407 l 16 445 l 119 681 z"},"x":{"x_min":0,"x_max":600,"ha":600,"o":"m 22 487 l 319 487 l 319 393 q 295 393 289 389 q 282 385 282 377 q 282 370 295 352 l 337 293 l 380 352 q 394 370 394 378 q 394 386 388 390 q 382 393 353 393 l 353 487 l 580 487 l 580 393 q 550 393 536 387 q 522 381 505 361 l 410 251 l 514 139 q 541 110 556 102 q 572 94 603 94 l 603 0 l 290 0 l 290 94 l 308 94 q 329 94 335 98 q 341 102 341 108 q 341 115 327 134 l 262 217 l 204 139 q 186 115 186 108 q 186 102 191 98 q 197 94 217 94 l 238 94 l 238 0 l -2 0 l -2 94 q 20 94 32 97 q 44 101 54 107 q 63 114 80 134 l 190 260 l 98 361 q 80 380 66 387 q 51 393 22 393 z"},")":{"x_min":0,"x_max":320,"ha":320,"o":"m 116 -231 l 46 -171 q 81 -116 94 -44 q 115 62 115 249 q 115 423 95 523 q 81 595 46 651 l 116 710 q 144 686 161 664 q 198 613 224 551 q 249 488 258 418 q 268 347 268 224 q 268 93 250 15 q 233 -63 199 -125 q 164 -188 116 -231 z"},"&":{"x_min":0,"x_max":800,"ha":800,"o":"m 494 449 l 733 449 l 733 355 l 704 355 q 679 355 669 350 q 660 345 653 333 q 649 327 637 279 q 629 248 611 210 q 594 172 572 142 q 594 109 608 99 q 623 88 637 88 q 654 88 666 100 q 678 111 678 129 q 678 147 663 172 q 649 194 649 211 q 649 236 668 255 q 688 273 715 273 q 751 273 775 245 q 799 216 799 164 q 799 88 745 38 q 691 -12 603 -12 q 558 -12 529 0 q 500 11 465 42 q 387 -12 284 -12 q 173 -12 104 52 q 36 115 36 207 q 36 284 80 340 q 114 385 196 431 q 162 453 144 482 q 127 511 127 546 q 127 607 175 650 q 222 693 299 693 q 377 693 421 654 q 465 614 465 555 q 465 505 440 470 q 420 442 381 422 q 408 410 424 396 q 445 377 467 344 q 481 323 522 240 q 551 304 551 332 q 551 340 546 346 q 541 352 533 354 q 527 355 494 355 z m 298 603 q 275 603 261 585 q 247 567 247 533 q 247 502 262 485 q 276 467 296 467 q 309 467 322 475 q 334 483 340 496 q 348 513 348 535 q 348 569 333 586 q 318 603 298 603 z m 296 372 q 249 347 225 311 q 200 274 200 233 q 200 179 237 142 q 273 104 324 104 q 364 104 404 123 q 393 141 385 163 l 359 254 q 345 302 336 321 q 327 340 319 351 q 311 361 296 372 z"},"_":{"x_min":0,"x_max":500,"ha":500,"o":"m -6 -75 l 506 -75 l 506 -125 l -6 -125 z"},"v":{"x_min":0,"x_max":600,"ha":600,"o":"m 340 487 l 599 487 l 599 393 q 566 393 561 391 q 553 389 544 379 q 535 370 525 351 l 366 0 l 235 0 l 68 361 q 62 374 53 382 q 46 389 37 391 q 31 393 1 393 l 1 487 l 301 487 l 301 393 l 285 393 q 256 393 250 389 q 240 383 240 374 q 240 366 247 351 l 322 161 l 401 351 q 408 367 408 375 q 408 384 397 389 q 390 393 363 393 l 340 393 z"},"O":{"x_min":0,"x_max":800,"ha":800,"o":"m 403 693 q 565 693 665 594 q 766 496 766 341 q 766 237 720 156 q 674 76 593 32 q 512 -12 398 -12 q 247 -12 151 71 q 35 171 35 339 q 35 495 136 594 q 238 693 403 693 z m 405 584 q 327 584 281 526 q 224 453 224 337 q 224 222 277 154 q 324 97 400 97 q 477 97 522 154 q 577 223 577 338 q 577 419 553 475 q 530 530 491 557 q 451 584 405 584 z"},"(":{"x_min":0,"x_max":320,"ha":320,"o":"m 205 710 l 274 650 q 240 595 226 524 q 206 417 206 230 q 206 56 225 -44 q 239 -115 274 -171 l 205 -231 q 176 -206 160 -184 q 122 -133 96 -71 q 71 -9 62 62 q 53 132 53 256 q 53 386 70 465 q 86 543 121 605 q 156 667 205 710 z"},"C":{"x_min":0,"x_max":740,"ha":740,"o":"m 563 681 l 632 681 l 699 437 l 608 410 q 563 498 523 534 q 467 584 402 584 q 355 584 314 558 q 272 532 248 480 q 224 429 224 360 q 224 255 280 180 q 335 104 425 104 q 482 104 535 137 q 601 177 648 246 l 724 189 q 650 89 589 49 q 495 -12 379 -12 q 283 -12 205 34 q 127 81 81 164 q 35 247 35 345 q 35 442 80 523 q 125 603 203 648 q 281 693 376 693 q 474 693 547 652 z"},"W":{"x_min":0,"x_max":940,"ha":940,"o":"m 8 681 l 308 681 l 308 587 q 279 587 272 585 q 265 583 260 576 q 254 570 254 562 q 254 554 261 530 l 352 176 l 432 428 l 400 530 q 399 533 396 542 q 390 566 377 576 q 365 586 341 587 l 341 681 l 625 681 l 625 587 l 603 587 q 578 587 570 581 q 560 573 560 560 q 560 551 567 522 l 648 208 l 731 522 q 740 557 740 563 q 740 575 731 581 q 723 587 698 587 l 673 587 l 673 681 l 932 681 l 932 587 q 904 587 892 581 q 880 576 872 564 q 864 552 853 515 l 702 0 l 555 0 l 476 273 l 391 0 l 237 0 l 85 522 q 75 557 68 567 q 61 577 48 582 q 35 587 8 587 z"},"A":{"x_min":0,"x_max":720,"ha":720,"o":"m 285 681 l 438 681 l 642 155 q 659 113 672 104 q 685 94 719 94 l 719 0 l 397 0 l 397 94 l 417 95 q 443 95 454 102 q 465 109 465 119 q 465 128 456 155 l 436 217 l 228 217 l 203 148 q 195 126 195 120 q 195 112 200 105 q 206 99 219 96 q 227 94 265 94 l 265 0 l 1 0 l 1 94 q 26 94 38 99 q 50 103 57 112 q 65 121 74 145 z m 264 314 l 400 314 l 333 502 z"},"f":{"x_min":0,"x_max":380,"ha":380,"o":"m 348 487 l 348 384 l 269 384 l 269 145 q 269 116 271 110 q 274 102 282 98 q 290 94 314 94 l 342 94 l 342 0 l 40 0 l 40 94 l 64 94 q 93 94 100 97 q 106 100 109 108 q 112 115 112 145 l 112 384 l 40 384 l 40 487 l 112 487 l 112 538 q 112 592 131 625 q 154 666 204 691 q 253 717 323 717 q 396 717 438 686 q 479 655 479 617 q 479 587 460 569 q 441 550 411 550 q 398 550 387 553 q 375 557 365 564 q 358 569 340 589 q 324 607 318 610 q 311 615 304 615 q 288 615 278 599 q 269 584 269 538 l 269 487 z"},"Q":{"x_min":0,"x_max":800,"ha":800,"o":"m 313 -4 q 203 13 126 95 q 35 191 35 339 q 35 495 136 594 q 237 693 402 693 q 565 693 665 594 q 766 496 766 341 q 766 250 730 177 q 695 104 633 58 q 570 11 480 -5 q 482 -48 511 -70 q 541 -92 583 -92 q 614 -92 648 -82 q 682 -72 708 -54 l 756 -137 q 702 -171 651 -186 q 600 -201 542 -201 q 469 -201 416 -176 q 363 -151 336 -103 q 315 -63 313 -4 z m 405 584 q 327 584 281 526 q 224 453 224 337 q 224 222 277 154 q 324 97 400 97 q 477 97 522 154 q 577 223 577 338 q 577 419 553 475 q 530 530 491 557 q 451 584 405 584 z"},"w":{"x_min":0,"x_max":800,"ha":800,"o":"m 8 487 l 266 487 l 266 393 l 255 393 q 237 393 231 389 q 225 384 225 376 q 225 369 229 355 l 297 144 l 356 309 l 341 355 q 334 375 324 384 q 314 392 294 393 l 294 487 l 540 487 l 540 393 l 520 393 q 503 393 497 388 q 491 383 491 374 q 491 365 497 349 l 556 173 l 615 349 q 621 366 621 375 q 621 384 614 388 q 607 393 584 393 l 573 393 l 573 487 l 792 487 l 792 393 q 769 393 762 390 q 754 387 749 381 q 742 372 734 349 l 603 0 l 473 0 l 400 197 l 326 0 l 196 0 l 67 349 q 61 367 51 379 q 45 388 38 390 q 32 393 8 393 z"},"-":{"x_min":0,"x_max":360,"ha":360,"o":"m 48 307 l 312 307 l 312 190 l 48 190 z"},"E":{"x_min":0,"x_max":720,"ha":720,"o":"m 38 681 l 606 681 l 684 466 l 596 434 q 573 487 543 519 q 513 551 477 562 q 440 572 392 572 l 288 572 l 288 402 l 322 402 q 361 402 374 408 q 388 414 394 426 q 399 438 399 473 l 399 499 l 486 499 l 486 211 l 399 211 l 399 240 q 399 270 392 284 q 385 297 373 302 q 361 307 319 307 l 288 307 l 288 151 q 288 126 291 121 q 293 115 300 112 q 307 109 331 109 l 388 109 q 452 109 496 128 q 540 146 574 187 q 608 228 627 284 l 716 253 l 627 0 l 38 0 l 38 94 l 55 94 q 89 94 101 99 q 113 104 118 116 q 120 124 120 158 l 120 529 q 120 559 116 568 q 112 578 103 582 q 94 587 68 587 l 38 587 z"},"s":{"x_min":0,"x_max":520,"ha":520,"o":"m 369 487 l 433 487 l 472 352 l 380 314 q 354 357 314 381 q 274 405 235 405 q 209 405 196 396 q 184 388 184 375 q 184 365 193 356 q 202 348 230 338 l 364 290 q 400 277 433 258 q 465 239 482 212 q 498 184 498 147 q 498 81 447 38 q 388 -12 299 -12 q 223 -12 166 27 l 152 0 l 87 0 l 27 160 l 120 199 q 154 145 205 114 q 256 83 298 83 q 325 83 343 95 q 356 105 356 118 q 356 129 346 140 q 335 150 298 163 l 193 199 q 105 230 74 265 q 42 300 42 348 q 42 409 92 451 q 148 499 230 499 q 304 499 356 466 z"},">":{"x_min":0,"x_max":600,"ha":600,"o":"m 58 515 l 58 609 l 542 382 l 542 299 l 58 72 l 58 166 l 421 340 z"},"l":{"x_min":0,"x_max":340,"ha":340,"o":"m 256 717 l 256 146 q 256 117 258 111 q 262 102 273 97 q 281 94 313 94 l 330 94 l 330 0 l 28 0 l 28 94 l 46 94 q 76 94 84 98 q 92 102 96 110 q 100 118 100 146 l 100 581 l 28 581 l 28 676 q 115 682 208 717 z"},"8":{"x_min":0,"x_max":660,"ha":660,"o":"m 464 378 q 540 349 581 297 q 613 258 613 199 q 613 110 543 52 q 464 -12 332 -12 q 244 -12 179 15 q 115 42 83 84 q 51 126 51 171 q 51 218 86 261 q 121 303 195 333 q 133 361 102 405 q 71 449 71 501 q 71 554 100 596 q 129 639 191 666 q 252 693 332 693 q 432 693 504 649 q 576 605 576 530 q 576 486 551 450 q 527 414 464 378 z m 372 420 l 390 440 q 407 458 413 469 q 422 483 426 495 q 429 507 429 519 q 429 545 402 566 q 374 586 325 586 q 277 586 251 567 q 225 548 225 523 q 225 501 241 486 q 262 465 317 442 z m 290 288 q 243 263 221 235 q 199 207 199 181 q 199 161 214 140 q 229 120 260 108 q 291 95 332 95 q 373 95 404 107 q 436 118 449 135 q 462 152 462 171 q 462 196 445 212 q 421 235 363 259 z"},"\\":{"x_min":0,"x_max":600,"ha":600,"o":"m 71 720 l 202 720 l 492 -138 l 368 -138 z"},"e":{"x_min":0,"x_max":580,"ha":580,"o":"m 479 181 l 546 113 q 488 47 428 18 q 369 -12 299 -12 q 188 -12 112 64 q 36 139 36 246 q 36 316 70 375 q 104 433 165 466 q 225 499 302 499 q 351 499 391 485 q 431 471 461 444 q 491 418 509 381 q 527 343 534 303 q 537 283 537 240 l 208 240 q 209 178 245 139 q 280 101 332 101 q 364 101 403 121 q 441 141 479 181 z m 381 322 q 378 351 367 368 q 357 385 339 395 q 321 405 302 405 q 281 405 262 395 q 243 384 232 367 q 220 349 217 322 z"},"b":{"x_min":0,"x_max":600,"ha":600,"o":"m 227 717 l 227 454 q 267 479 299 489 q 330 499 362 499 q 445 499 499 438 q 562 368 562 251 q 562 132 499 60 q 436 -12 346 -12 q 309 -12 275 0 q 242 13 205 41 l 179 0 l 71 0 l 71 581 l 0 581 l 0 676 q 96 683 179 717 z m 227 348 l 227 199 q 227 154 234 137 q 241 121 259 109 q 276 98 300 98 q 341 98 365 131 q 395 173 395 246 q 395 315 369 353 q 348 383 314 383 q 295 383 273 374 q 251 365 227 348 z"},"%":{"x_min":0,"x_max":940,"ha":940,"o":"m 213 693 q 271 693 311 671 q 351 650 373 612 q 394 573 394 516 q 394 452 373 413 q 352 375 312 353 q 271 331 211 331 q 152 331 113 352 q 74 374 52 413 q 30 452 30 511 q 30 570 52 610 q 74 649 114 671 q 154 693 213 693 z m 282 512 q 282 573 263 600 q 243 626 212 626 q 181 626 162 600 q 143 574 143 512 q 143 449 162 423 q 181 396 211 396 q 244 396 263 423 q 282 450 282 512 z m 721 693 l 297 -12 l 219 -12 l 640 693 z m 729 351 q 787 351 827 329 q 867 308 888 269 q 910 231 910 174 q 910 109 889 71 q 868 32 828 10 q 788 -12 728 -12 q 668 -12 629 10 q 590 31 568 71 q 546 110 546 169 q 546 228 568 268 q 590 307 630 329 q 670 351 729 351 z m 798 169 q 798 231 779 258 q 759 284 728 284 q 696 284 677 258 q 659 232 659 169 q 659 107 677 81 q 696 55 728 55 q 759 55 779 82 q 798 108 798 169 z"},"m":{"x_min":0,"x_max":1000,"ha":1000,"o":"m 259 499 l 259 434 q 302 467 346 483 q 390 499 435 499 q 464 499 490 490 q 517 482 535 468 q 553 455 567 431 q 615 467 658 483 q 702 499 747 499 q 786 499 817 485 q 849 471 869 447 q 889 422 895 394 q 898 376 898 343 l 898 141 q 898 116 902 108 q 906 101 915 97 q 921 94 950 94 l 972 94 l 972 0 l 686 0 l 686 94 q 718 94 726 97 q 734 101 738 108 q 742 115 742 139 l 742 316 q 742 347 738 357 q 734 367 722 374 q 710 381 693 381 q 674 381 652 372 q 630 364 587 335 l 587 144 q 587 116 591 108 q 595 101 605 97 q 611 95 644 94 l 644 0 l 375 0 l 375 94 q 409 95 416 98 q 423 101 427 108 q 431 116 431 144 l 431 312 q 431 350 424 363 q 414 382 386 382 q 373 382 357 378 q 342 375 328 368 q 320 364 288 342 l 276 335 l 276 144 q 276 117 279 110 q 282 103 291 99 q 299 94 320 94 l 333 94 l 333 0 l 48 0 l 48 94 l 67 94 q 98 94 105 97 q 113 101 117 109 q 121 117 121 144 l 121 364 l 48 364 l 48 458 q 138 466 213 499 z"},"#":{"x_min":0,"x_max":600,"ha":600,"o":"m 518 299 l 518 211 l 417 211 l 386 0 l 297 0 l 328 211 l 243 211 l 212 0 l 125 0 l 156 211 l 56 211 l 56 299 l 169 299 l 182 382 l 84 382 l 84 470 l 194 470 l 224 667 l 310 667 l 281 470 l 366 470 l 395 667 l 483 667 l 454 470 l 543 470 l 543 382 l 442 382 l 430 299 z m 354 382 l 269 382 l 257 299 l 340 299 z"},",":{"x_min":0,"x_max":340,"ha":340,"o":"m 131 -184 l 76 -124 q 140 -65 157 -42 q 174 -20 185 14 q 175 7 166 3 q 156 0 146 0 q 118 0 97 23 q 75 47 75 80 q 75 119 102 146 q 129 172 168 172 q 197 172 224 156 q 251 140 266 111 q 280 83 280 45 q 280 -17 239 -76 q 198 -135 131 -184 z"},"n":{"x_min":0,"x_max":680,"ha":680,"o":"m 254 499 l 254 434 q 310 472 349 485 q 388 499 429 499 q 477 499 513 479 q 549 459 566 429 q 583 399 583 344 l 583 141 q 583 115 586 107 q 590 100 598 97 q 604 94 633 94 l 657 94 l 657 0 l 370 0 l 370 94 q 403 95 407 96 q 419 99 423 107 q 427 115 427 141 l 427 320 q 427 354 419 365 q 408 382 382 382 q 361 382 337 373 q 313 363 273 334 l 273 141 q 273 109 280 102 q 287 94 312 94 l 328 94 l 328 0 l 44 0 l 44 94 l 59 94 q 92 94 100 97 q 108 100 113 107 q 117 115 117 136 l 117 364 l 44 364 l 44 458 q 132 469 209 499 z"},"h":{"x_min":0,"x_max":680,"ha":680,"o":"m 269 717 l 269 446 q 317 475 354 487 q 392 499 426 499 q 473 499 509 479 q 545 459 562 430 q 580 400 580 350 l 580 146 q 580 117 582 110 q 586 101 597 97 q 603 94 631 94 l 654 94 l 654 0 l 367 0 l 367 94 l 382 94 q 403 94 411 98 q 418 102 421 109 q 424 116 424 144 l 424 312 q 424 345 420 356 q 416 367 405 374 q 395 381 378 381 q 355 381 330 372 q 305 363 269 338 l 269 144 q 269 116 272 109 q 275 102 283 98 q 292 94 314 94 l 325 94 l 325 0 l 41 0 l 41 94 l 68 94 q 92 94 99 97 q 105 101 109 108 q 112 116 112 138 l 112 581 l 41 581 l 41 675 q 82 678 132 689 q 183 701 223 717 z"},"z":{"x_min":0,"x_max":560,"ha":560,"o":"m 108 487 l 522 487 l 522 393 l 231 104 l 297 104 q 350 104 378 115 q 406 126 428 150 q 442 166 461 208 l 550 175 l 485 0 l 26 0 l 26 94 l 314 384 l 269 384 q 226 384 203 375 q 180 367 158 343 q 147 332 120 285 l 34 325 z"},"B":{"x_min":0,"x_max":720,"ha":720,"o":"m 39 587 l 39 681 l 426 681 q 515 681 565 660 q 616 640 644 601 q 671 562 671 516 q 671 482 656 452 q 642 421 615 398 q 588 375 543 360 q 591 348 617 333 q 653 312 675 276 q 696 239 696 193 q 696 139 664 94 q 631 48 571 24 q 511 0 396 0 l 39 0 l 39 94 l 65 94 q 92 94 102 99 q 111 104 115 112 q 119 121 119 150 l 119 530 q 119 561 115 569 q 111 577 102 582 q 92 587 65 587 z m 288 405 l 363 405 q 421 405 449 415 q 478 425 492 445 q 506 464 506 490 q 506 517 492 536 q 479 555 454 563 q 428 571 363 571 l 288 571 z m 288 305 l 288 158 q 289 126 291 121 q 293 114 299 112 q 304 109 329 109 l 379 109 q 422 109 451 117 q 479 125 500 150 q 520 176 520 211 q 520 242 505 263 q 491 284 463 294 q 435 305 376 305 z"},"K":{"x_min":0,"x_max":800,"ha":800,"o":"m 37 681 l 369 681 l 369 587 l 347 587 q 315 587 308 583 q 296 578 291 568 q 286 559 286 532 l 286 351 l 499 547 q 513 561 516 565 q 519 570 519 573 q 519 580 513 583 q 507 587 484 587 l 457 587 l 457 681 l 765 681 l 765 587 l 755 587 q 733 587 725 585 q 717 583 705 575 q 693 568 674 551 l 509 409 l 706 144 q 731 109 743 103 q 758 94 788 94 l 801 94 l 801 0 l 457 0 l 457 94 l 471 94 q 508 94 516 98 q 524 101 524 106 q 524 112 509 134 l 390 305 l 286 216 l 286 147 q 286 122 291 112 q 296 103 305 98 q 314 94 341 94 l 369 94 l 369 0 l 37 0 l 37 94 l 62 94 q 91 94 101 99 q 110 104 115 114 q 119 122 119 154 l 119 526 q 119 556 114 566 q 110 577 100 582 q 90 587 65 587 l 37 587 z"},"R":{"x_min":0,"x_max":780,"ha":780,"o":"m 36 681 l 456 681 q 497 681 545 674 q 593 667 632 642 q 670 617 692 579 q 713 541 713 493 q 713 415 658 367 q 603 319 527 304 l 667 141 l 673 134 q 687 117 698 109 q 709 101 720 98 q 731 94 751 94 l 781 94 l 781 0 l 562 0 l 344 293 l 287 293 l 287 158 q 287 123 291 113 q 295 104 303 99 q 312 94 338 94 l 369 94 l 369 0 l 36 0 l 36 94 l 66 94 q 90 94 100 99 q 110 104 115 115 q 118 121 118 151 l 118 535 q 118 557 114 567 q 110 576 102 579 q 90 584 75 584 l 62 584 l 36 584 z m 287 569 l 287 393 l 388 393 q 448 393 477 404 q 507 415 522 436 q 537 456 537 485 q 537 512 523 531 q 509 551 483 560 q 458 569 399 569 z"},"T":{"x_min":0,"x_max":700,"ha":700,"o":"m 85 704 l 150 704 l 157 681 l 541 681 l 549 704 l 614 704 l 699 465 l 608 434 q 578 493 564 511 q 539 547 505 567 q 479 583 455 583 q 443 583 438 577 q 434 572 434 552 l 434 160 q 434 125 437 117 q 439 108 445 103 q 451 98 461 96 q 471 94 516 94 l 516 0 l 184 0 l 184 94 l 204 94 q 237 94 246 98 q 255 103 260 113 q 265 124 265 157 l 265 557 q 265 574 261 579 q 257 583 245 583 q 219 583 188 564 q 157 545 132 510 q 123 497 91 434 l 1 465 z"},"P":{"x_min":0,"x_max":660,"ha":660,"o":"m 40 681 l 400 681 q 468 681 513 667 q 559 653 591 625 q 624 597 641 558 q 659 519 659 476 q 659 388 592 329 q 524 270 406 270 l 290 270 l 290 143 q 290 119 293 112 q 298 103 307 99 q 316 94 337 94 l 372 94 l 372 0 l 40 0 l 40 94 l 63 94 q 93 94 103 99 q 113 103 117 113 q 122 122 122 152 l 122 526 q 122 558 118 568 q 114 578 105 582 q 97 587 73 587 l 40 587 z m 290 570 l 290 376 l 348 376 q 401 376 426 387 q 451 398 466 421 q 481 444 481 475 q 481 522 445 549 q 418 570 366 570 z"},"|":{"x_min":0,"x_max":600,"ha":600,"o":"m 238 717 l 362 717 l 362 -218 l 238 -218 z"},"t":{"x_min":0,"x_max":460,"ha":460,"o":"m 257 655 l 257 487 l 414 487 l 414 383 l 257 383 l 257 213 q 257 156 263 139 q 269 123 286 113 q 308 100 336 100 q 386 100 436 133 l 436 28 q 394 8 359 0 q 325 -8 285 -8 q 239 -8 204 4 q 169 15 145 36 q 120 58 111 82 q 101 105 101 151 l 101 383 l 28 383 l 28 477 q 67 490 95 513 q 123 537 139 570 q 156 604 163 655 z"},"M":{"x_min":0,"x_max":940,"ha":940,"o":"m 39 681 l 347 681 l 465 267 l 588 681 l 901 681 l 901 587 l 868 587 q 840 587 830 575 q 819 564 819 532 l 819 146 q 819 120 822 114 q 827 104 834 100 q 845 94 863 94 l 901 94 l 901 0 l 574 0 l 574 94 l 599 94 q 627 94 637 99 q 646 103 651 112 q 656 121 656 146 l 656 564 l 490 0 l 396 0 l 235 546 l 235 132 q 235 118 240 110 q 245 103 255 98 q 264 94 285 94 l 318 94 l 318 0 l 39 0 l 39 94 l 66 94 q 92 94 102 99 q 111 104 116 114 q 121 124 121 150 l 121 532 q 121 559 117 566 q 113 577 104 582 q 95 587 76 587 l 39 587 z"},"g":{"x_min":0,"x_max":580,"ha":580,"o":"m 414 459 q 439 496 465 511 q 491 526 520 526 q 549 526 565 510 q 582 493 582 466 q 582 442 566 427 q 550 411 527 411 l 511 411 l 494 412 q 481 412 468 402 q 495 357 495 317 q 495 274 468 233 q 441 193 394 170 q 347 148 281 148 q 262 148 243 150 q 224 152 204 157 q 191 148 184 141 q 177 133 177 126 q 177 111 208 106 l 411 78 q 501 65 541 29 q 581 -7 581 -57 q 581 -101 551 -138 q 521 -175 452 -199 q 383 -223 279 -223 q 187 -223 127 -205 q 67 -188 42 -160 q 17 -133 17 -109 q 17 -81 35 -59 q 54 -37 113 -8 q 77 5 59 24 q 34 50 34 77 q 34 106 57 134 q 80 163 125 190 q 100 206 85 224 q 71 243 62 269 q 53 295 53 323 q 53 396 113 448 q 172 499 270 499 q 313 499 349 489 q 385 479 414 459 z m 275 406 q 244 406 223 383 q 203 360 203 321 q 203 285 223 263 q 242 242 273 242 q 303 242 323 264 q 344 286 344 321 q 344 360 324 383 q 305 406 275 406 z m 204 -31 q 178 -51 171 -62 q 164 -72 164 -85 q 164 -109 203 -122 q 242 -136 303 -136 q 348 -136 382 -128 q 416 -120 427 -109 q 435 -102 435 -89 q 435 -75 420 -65 q 405 -56 349 -49 z"},"j":{"x_min":0,"x_max":340,"ha":340,"o":"m 189 717 q 227 717 253 691 q 279 665 279 627 q 279 591 253 564 q 227 538 189 538 q 153 538 127 564 q 101 590 101 627 q 101 665 127 691 q 153 717 189 717 z m 268 499 l 268 -21 q 268 -95 247 -134 q 225 -173 176 -198 q 126 -223 58 -223 q 8 -223 -27 -209 q -62 -194 -79 -170 q -97 -146 -97 -121 q -97 -94 -75 -75 q -54 -57 -27 -57 q -10 -57 9 -67 q 27 -77 51 -105 q 66 -123 78 -123 q 94 -123 104 -109 q 113 -96 113 -62 l 113 364 l 41 364 l 41 457 q 91 458 135 468 q 179 478 222 499 z"},"i":{"x_min":0,"x_max":360,"ha":360,"o":"m 188 717 q 225 717 251 691 q 277 665 277 627 q 277 590 251 564 q 225 538 188 538 q 150 538 124 564 q 98 590 98 627 q 98 664 125 690 q 152 717 188 717 z m 267 499 l 267 138 q 267 112 270 106 q 272 101 280 97 q 288 94 314 94 l 340 94 l 340 0 l 39 0 l 39 94 l 64 94 q 90 94 97 97 q 104 100 107 106 q 111 112 111 131 l 111 364 l 39 364 l 39 456 q 77 458 113 464 q 148 471 176 479 q 194 485 220 499 z"},"y":{"x_min":0,"x_max":620,"ha":620,"o":"m 8 487 l 312 487 l 312 393 l 292 393 q 265 393 258 389 q 251 386 251 379 q 251 373 261 348 l 334 172 l 411 348 q 420 368 420 377 q 420 385 413 389 q 405 393 379 393 l 351 393 l 351 487 l 614 487 l 614 393 q 580 393 574 391 q 565 389 560 383 q 555 378 542 354 l 322 -99 q 287 -170 246 -198 q 205 -227 147 -227 q 92 -227 57 -197 q 23 -167 23 -130 q 23 -101 43 -80 q 64 -59 93 -59 q 112 -59 131 -68 q 143 -75 156 -90 q 164 -100 168 -102 q 173 -105 177 -105 q 188 -105 197 -95 q 212 -80 230 -40 l 249 0 l 83 348 q 71 375 64 381 q 58 388 49 391 q 41 393 8 393 z"},"@":{"x_min":0,"x_max":820,"ha":820,"o":"m 522 452 l 641 457 l 552 150 q 537 100 537 75 q 537 58 548 47 q 560 35 577 35 q 612 35 666 76 q 720 117 753 188 q 787 259 787 338 q 787 427 746 499 q 706 570 637 608 q 567 646 474 646 q 353 646 256 590 q 159 533 101 427 q 42 321 42 196 q 42 20 157 -88 q 264 -188 424 -188 q 523 -188 610 -148 q 698 -108 757 -38 q 798 11 825 81 l 854 81 q 815 -17 752 -82 q 689 -146 606 -181 q 522 -216 423 -216 q 241 -216 120 -101 q -9 21 -9 213 q -9 344 52 451 q 113 558 220 617 q 327 677 463 677 q 571 677 649 636 q 727 595 771 519 q 814 443 814 347 q 814 250 772 167 q 730 84 665 42 q 600 0 522 0 q 489 0 468 10 q 447 21 435 42 q 422 62 422 87 q 422 111 434 154 q 396 91 376 67 q 347 33 314 13 q 293 0 266 0 q 230 0 207 28 q 184 57 184 110 q 184 174 208 241 q 232 308 275 362 q 318 417 373 450 q 406 470 436 470 q 468 470 487 447 q 500 432 505 394 z m 450 435 q 438 435 421 423 q 405 412 378 363 q 352 314 331 245 q 310 176 310 135 q 310 113 318 101 q 327 89 338 89 q 347 89 362 101 q 388 119 417 166 q 447 213 465 269 q 483 325 483 369 q 483 402 472 418 q 462 435 450 435 z"},".":{"x_min":0,"x_max":340,"ha":340,"o":"m 170 174 q 208 174 235 147 q 261 121 261 83 q 261 45 235 19 q 208 -8 170 -8 q 132 -8 106 19 q 79 45 79 83 q 79 121 106 147 q 132 174 170 174 z"},"p":{"x_min":0,"x_max":640,"ha":640,"o":"m 248 499 l 248 445 q 304 479 333 489 q 363 499 396 499 q 482 499 536 436 q 597 364 597 251 q 597 144 543 72 q 482 -12 378 -12 q 345 -12 320 -4 q 295 3 266 23 l 266 -75 q 266 -104 269 -110 q 272 -117 280 -120 q 288 -124 318 -124 l 341 -124 l 341 -218 l 37 -218 l 37 -124 l 54 -124 q 87 -124 94 -121 q 102 -118 106 -110 q 110 -101 110 -75 l 110 363 l 37 363 l 37 458 q 90 464 127 473 q 164 482 202 499 z m 266 347 l 266 188 q 266 150 273 134 q 280 118 298 108 q 315 98 337 98 q 377 98 403 135 q 429 171 429 246 q 429 315 406 349 q 384 382 351 382 q 312 382 266 347 z"},"X":{"x_min":0,"x_max":780,"ha":780,"o":"m 25 681 l 392 681 l 392 587 l 364 587 q 341 587 335 583 q 329 580 329 571 q 329 567 332 562 q 334 558 346 543 l 418 457 l 499 546 q 515 563 515 571 q 515 579 508 583 q 501 587 478 587 l 453 587 l 453 681 l 759 681 l 759 587 q 725 586 711 582 q 697 578 679 566 q 666 558 650 541 l 469 362 l 668 149 q 701 114 723 104 q 744 94 781 94 l 781 0 l 408 0 l 408 94 l 442 94 q 466 94 472 98 q 478 101 478 108 q 478 117 462 136 l 364 248 l 259 136 q 245 121 245 109 q 245 103 252 98 q 260 94 282 94 l 309 94 l 309 0 l -1 0 l -1 94 q 31 94 45 98 q 58 101 69 109 q 88 123 116 149 l 311 344 l 125 543 q 99 572 82 579 q 65 587 25 587 z"},"*":{"x_min":0,"x_max":460,"ha":460,"o":"m 208 531 q 188 580 182 599 q 176 618 176 633 q 176 659 193 676 q 209 694 233 694 q 255 694 271 677 q 287 661 287 636 q 287 622 281 604 q 272 575 252 531 q 264 525 273 516 q 277 519 292 532 q 327 562 346 572 q 365 581 382 581 q 406 581 422 565 q 438 549 438 527 q 438 503 419 486 q 399 470 363 470 q 346 470 287 475 q 284 462 279 450 q 340 416 359 394 q 377 372 377 349 q 377 326 362 310 q 347 294 325 294 q 308 294 292 305 q 276 316 266 339 q 256 362 244 425 q 235 423 230 423 q 227 423 218 424 q 204 362 194 340 q 184 317 168 307 q 152 296 135 296 q 112 296 97 311 q 82 327 82 349 q 82 372 98 391 q 114 411 183 450 q 177 461 173 474 q 124 470 109 470 q 65 470 43 488 q 21 505 21 531 q 21 553 37 569 q 53 584 77 584 q 96 584 115 573 q 134 563 188 515 q 197 525 208 531 z"},"Y":{"x_min":0,"x_max":700,"ha":700,"o":"m 0 681 l 339 681 l 339 587 l 313 587 q 287 587 280 583 q 273 579 273 569 q 273 557 289 531 l 378 383 l 478 538 q 491 558 492 560 q 494 565 494 571 q 494 579 489 583 q 483 587 462 587 l 428 587 l 428 681 l 699 681 l 699 587 q 664 586 649 579 q 635 571 615 541 l 433 276 l 433 155 q 433 123 437 113 q 441 104 451 99 q 461 94 491 94 l 515 94 l 515 0 l 183 0 l 183 94 l 201 94 q 236 94 246 99 q 255 104 260 115 q 266 125 266 159 l 266 265 l 84 541 q 63 573 47 582 q 35 587 0 587 z"},"c":{"x_min":0,"x_max":580,"ha":580,"o":"m 482 185 l 554 122 q 497 52 435 20 q 373 -12 302 -12 q 188 -12 113 62 q 37 136 37 242 q 37 313 72 373 q 107 433 169 466 q 231 499 315 499 q 416 499 479 452 q 543 406 543 354 q 543 332 533 315 q 523 297 502 287 q 482 276 459 276 q 440 276 426 283 q 411 291 401 302 q 397 307 384 332 q 368 364 359 374 q 351 384 338 390 q 326 396 311 396 q 285 396 262 379 q 239 363 224 330 q 209 296 209 255 q 209 210 227 175 q 244 139 274 120 q 303 102 339 102 q 373 102 408 120 q 442 139 482 185 z"},"!":{"x_min":0,"x_max":360,"ha":360,"o":"m 229 208 l 134 208 q 126 325 121 363 l 91 561 q 88 585 88 600 q 88 624 100 646 q 113 667 135 680 q 156 693 180 693 q 203 693 225 680 q 248 667 260 645 q 272 623 272 599 q 272 580 268 550 q 244 408 235 334 q 229 278 229 208 z m 180 174 q 218 174 244 147 q 271 121 271 83 q 271 45 244 19 q 218 -8 180 -8 q 142 -8 115 19 q 89 45 89 83 q 89 121 115 147 q 142 174 180 174 z"},"/":{"x_min":0,"x_max":600,"ha":600,"o":"m 499 720 l 202 -138 l 71 -138 l 368 720 z"},"[":{"x_min":0,"x_max":300,"ha":300,"o":"m 58 710 l 290 710 l 290 616 l 195 616 l 195 -136 l 290 -136 l 290 -231 l 58 -231 z"},"6":{"x_min":0,"x_max":660,"ha":660,"o":"m 555 693 l 555 597 q 462 594 406 580 q 350 565 313 541 q 276 517 253 483 q 229 450 221 407 q 264 437 302 449 q 340 461 385 461 q 457 461 513 432 q 569 403 598 353 q 628 303 628 238 q 628 129 551 59 q 474 -12 343 -12 q 208 -12 132 61 q 42 145 42 292 q 42 393 73 463 q 103 533 167 587 q 231 641 318 666 q 405 692 555 693 z m 341 351 q 305 351 278 335 q 250 319 235 289 q 220 260 220 222 q 220 166 254 131 q 287 95 338 95 q 390 95 424 131 q 458 166 458 223 q 458 281 425 316 q 392 351 341 351 z"},"r":{"x_min":0,"x_max":460,"ha":460,"o":"m 254 499 l 254 428 q 293 469 322 484 q 350 499 376 499 q 400 499 419 488 q 438 477 449 457 q 460 436 460 413 q 460 382 440 357 q 419 332 383 332 q 373 332 365 333 q 358 335 333 343 q 321 347 312 347 q 300 347 271 331 l 271 140 q 271 116 274 108 q 278 101 286 98 q 294 94 322 94 l 344 94 l 344 0 l 42 0 l 42 94 l 67 94 q 94 94 101 97 q 107 100 111 107 q 114 115 114 140 l 114 364 l 42 364 l 42 458 q 122 463 208 499 z"},"2":{"x_min":0,"x_max":660,"ha":660,"o":"m 146 411 l 47 402 q 42 428 42 451 q 42 521 75 573 q 108 625 177 659 q 247 693 331 693 q 409 693 471 663 q 534 634 566 587 q 598 540 598 488 q 598 436 575 391 q 550 340 494 292 q 438 245 267 141 l 431 141 q 471 141 481 145 q 492 149 500 161 q 508 173 513 203 l 517 226 l 612 226 l 567 -24 l 503 -24 l 497 0 l 47 0 l 47 94 q 146 159 299 285 q 377 349 403 396 q 422 430 422 468 q 422 511 386 541 q 350 571 290 571 q 246 571 213 555 q 180 539 162 508 q 143 478 143 444 q 143 432 146 411 z"},"{":{"x_min":0,"x_max":320,"ha":320,"o":"m 313 693 l 313 670 q 279 664 259 651 q 240 639 229 619 q 218 599 218 579 q 218 547 229 500 q 242 449 242 414 q 242 375 219 340 q 197 305 160 283 q 135 269 83 254 q 140 236 166 219 q 204 194 223 160 q 243 125 243 92 q 243 65 231 16 q 219 -34 219 -67 q 219 -91 229 -112 q 240 -133 259 -145 q 277 -157 313 -164 l 313 -187 q 271 -187 252 -183 q 215 -174 182 -152 q 149 -129 130 -96 q 112 -63 112 -30 q 112 1 127 60 q 138 104 138 136 q 138 179 110 208 q 87 231 42 238 l 42 268 q 76 273 95 287 q 114 300 126 324 q 138 348 138 375 q 138 406 127 448 q 112 506 112 535 q 112 562 126 592 q 141 621 167 644 q 192 667 226 679 q 260 691 313 693 z"},"9":{"x_min":0,"x_max":660,"ha":660,"o":"m 104 -12 l 104 83 q 198 87 254 101 q 310 115 347 140 q 384 164 407 198 q 430 231 439 274 q 396 244 358 232 q 319 219 275 219 q 204 219 147 249 q 91 278 62 328 q 32 377 32 443 q 32 552 109 623 q 186 693 317 693 q 452 693 528 621 q 618 536 618 388 q 618 289 587 218 q 557 148 493 94 q 429 40 342 14 q 255 -11 104 -12 z m 319 331 q 354 331 382 346 q 409 362 424 392 q 439 421 439 459 q 439 515 406 550 q 373 585 322 585 q 270 585 236 550 q 202 515 202 458 q 202 400 235 365 q 268 331 319 331 z"}," ":{"x_min":0,"x_max":340,"ha":340,"o":""},"I":{"x_min":0,"x_max":400,"ha":400,"o":"m 34 681 l 366 681 l 366 587 l 336 587 q 310 587 301 582 q 292 578 288 568 q 284 558 284 529 l 284 152 q 284 122 288 113 q 291 104 299 100 q 310 94 330 94 l 366 94 l 366 0 l 34 0 l 34 94 l 61 94 q 90 94 99 98 q 107 103 112 112 q 116 121 116 147 l 116 526 q 116 558 112 568 q 107 578 98 583 q 91 587 64 587 l 34 587 z"},"H":{"x_min":0,"x_max":820,"ha":820,"o":"m 36 681 l 368 681 l 368 587 l 337 587 q 312 587 303 582 q 293 577 290 567 q 286 558 286 526 l 286 407 l 534 407 l 534 535 q 534 558 531 566 q 527 578 518 583 q 508 587 477 587 l 451 587 l 451 681 l 784 681 l 784 587 l 756 587 q 728 587 719 582 q 709 578 706 569 q 702 560 702 526 l 702 157 q 702 123 707 113 q 711 103 721 98 q 730 94 765 94 l 784 94 l 784 0 l 451 0 l 451 94 l 473 94 q 503 94 514 99 q 525 104 530 113 q 534 123 534 157 l 534 301 l 286 301 l 286 157 q 286 123 289 114 q 293 102 304 98 q 314 94 345 94 l 368 94 l 368 0 l 36 0 l 36 94 l 58 94 q 86 94 98 99 q 109 104 113 113 q 117 122 117 151 l 117 521 q 117 556 113 567 q 109 577 100 582 q 91 587 66 587 l 36 587 z"},"4":{"x_min":0,"x_max":660,"ha":660,"o":"m 353 681 l 508 681 l 508 312 l 636 312 l 636 188 l 508 188 l 508 0 l 353 0 l 353 188 l 32 188 l 32 340 z m 353 524 l 151 312 l 353 312 z"},"~":{"x_min":0,"x_max":600,"ha":600,"o":"m 496 433 l 550 372 q 520 321 499 300 q 478 278 455 268 q 433 258 408 258 q 391 258 373 263 q 355 268 296 292 q 232 319 221 323 q 210 326 197 326 q 173 326 153 310 q 133 293 104 240 l 50 302 q 80 354 101 377 q 123 400 147 412 q 170 423 194 423 q 215 423 236 417 q 266 409 317 386 q 370 363 384 359 q 397 355 408 355 q 429 355 448 370 q 468 385 496 433 z"},"D":{"x_min":0,"x_max":780,"ha":780,"o":"m 37 681 l 394 681 q 516 681 587 643 q 659 604 702 528 q 745 453 745 347 q 745 273 723 215 q 701 157 658 110 q 615 63 566 40 q 529 22 461 11 q 393 0 352 0 l 37 0 l 37 94 l 61 94 q 90 94 100 99 q 109 104 115 116 q 119 125 119 156 l 119 528 q 119 560 115 569 q 110 578 101 582 q 91 587 61 587 l 37 587 z m 286 572 l 286 148 q 286 127 289 122 q 292 115 300 112 q 308 109 336 109 q 417 109 462 134 q 507 159 535 213 q 562 268 562 343 q 562 417 536 472 q 510 527 472 549 q 433 572 361 572 z"},"^":{"x_min":0,"x_max":600,"ha":600,"o":"m 158 283 l 51 283 l 249 681 l 351 681 l 549 283 l 442 283 l 300 559 z"},"0":{"x_min":0,"x_max":660,"ha":660,"o":"m 332 693 q 423 693 489 653 q 554 613 591 539 q 628 464 628 349 q 628 219 594 149 q 556 69 490 29 q 424 -12 329 -12 q 235 -12 171 28 q 107 67 69 144 q 32 221 32 340 q 32 459 69 535 q 106 611 173 652 q 239 693 332 693 z m 459 340 q 459 474 419 534 q 384 586 327 586 q 274 586 239 531 q 203 476 203 340 q 203 205 239 150 q 275 95 330 95 q 385 95 422 151 q 459 208 459 340 z"},"F":{"x_min":0,"x_max":680,"ha":680,"o":"m 39 681 l 602 681 l 679 464 l 591 433 q 569 480 550 505 q 530 529 503 545 q 477 561 445 566 q 424 570 371 570 l 287 570 l 287 389 l 330 389 q 354 389 368 396 q 382 404 388 416 q 395 427 395 455 l 395 491 l 482 491 l 482 186 l 395 186 l 395 230 q 395 249 391 258 q 387 270 379 277 q 371 284 361 287 q 351 290 325 290 l 287 290 l 287 147 q 287 121 292 112 q 296 103 306 99 q 315 94 343 94 l 371 94 l 371 0 l 39 0 l 39 94 l 61 94 q 98 94 109 104 q 121 113 121 142 l 121 534 q 121 561 116 569 q 112 578 102 583 q 91 587 61 587 l 39 587 z"},"`":{"x_min":0,"x_max":400,"ha":400,"o":"m 310 552 l 150 586 q 109 595 90 615 q 71 635 71 663 q 71 682 80 698 q 89 715 106 725 q 123 735 139 735 q 179 735 225 695 l 330 601 z"},"k":{"x_min":0,"x_max":660,"ha":660,"o":"m 270 717 l 270 277 l 364 356 q 379 369 382 373 q 384 376 384 380 q 384 386 378 389 q 371 393 350 393 l 331 393 l 331 487 l 629 487 l 629 393 q 597 393 585 389 q 570 382 534 356 l 439 287 l 574 130 q 595 106 608 100 q 621 95 659 94 l 659 0 l 356 0 l 356 94 l 373 94 q 391 94 397 98 q 403 101 403 106 q 403 113 387 134 l 331 206 l 270 160 l 270 134 q 270 115 273 109 q 276 102 283 98 q 290 94 305 94 l 322 94 l 322 0 l 42 0 l 42 94 q 57 95 64 95 q 92 95 100 98 q 107 102 111 111 q 113 117 113 153 l 113 581 l 42 581 l 42 676 q 125 680 223 717 z"},"u":{"x_min":0,"x_max":660,"ha":660,"o":"m 26 487 l 254 492 l 254 175 q 254 141 258 130 q 262 119 273 112 q 284 104 301 104 q 325 104 353 116 q 363 121 410 151 l 410 341 q 410 366 406 375 q 402 385 395 389 q 387 393 366 393 l 338 393 l 338 487 l 566 492 l 566 142 q 566 115 570 108 q 573 101 580 97 q 587 94 614 94 l 640 94 l 640 0 l 425 -6 l 425 52 q 382 20 339 4 q 295 -12 251 -12 q 216 -12 187 0 q 157 11 137 31 q 117 50 107 76 q 98 102 98 142 l 98 343 q 98 371 94 378 q 91 386 84 389 q 77 393 53 393 l 26 393 z"},"]":{"x_min":0,"x_max":300,"ha":300,"o":"m 242 -231 l 10 -231 l 10 -136 l 105 -136 l 105 616 l 10 616 l 10 710 l 242 710 z"},"U":{"x_min":0,"x_max":740,"ha":740,"o":"m 18 681 l 351 681 l 351 587 l 318 587 q 295 587 286 582 q 276 576 272 566 q 268 556 268 525 l 268 277 q 268 208 281 174 q 295 140 323 122 q 352 104 392 104 q 432 104 463 124 q 494 143 508 173 q 521 203 521 272 l 521 546 q 521 563 517 570 q 511 580 501 584 q 494 587 466 587 l 440 587 l 440 681 l 722 681 l 722 587 l 700 587 q 667 587 659 583 q 647 577 642 566 q 638 559 638 525 l 638 257 q 638 183 617 132 q 587 64 522 26 q 457 -12 367 -12 q 304 -12 254 8 q 205 27 167 63 q 130 99 115 139 q 100 179 100 257 l 100 520 q 100 556 96 567 q 92 577 83 582 q 75 587 49 587 l 18 587 z"},"o":{"x_min":0,"x_max":620,"ha":620,"o":"m 309 499 q 392 499 454 466 q 516 434 550 377 q 583 321 583 245 q 583 131 509 60 q 435 -12 311 -12 q 184 -12 109 60 q 37 128 37 245 q 37 322 70 377 q 103 432 166 466 q 228 499 309 499 z m 311 392 q 283 392 258 375 q 234 359 220 327 q 207 294 207 245 q 207 193 220 160 q 233 126 257 110 q 280 94 308 94 q 351 94 381 130 q 412 167 412 243 q 412 317 384 355 q 355 392 311 392 z"},"N":{"x_min":0,"x_max":740,"ha":740,"o":"m 38 681 l 315 681 l 515 284 l 515 527 q 515 558 511 566 q 506 578 498 582 q 490 587 466 587 l 433 587 l 433 681 l 714 681 l 714 587 l 683 587 q 659 587 649 582 q 639 576 635 567 q 631 558 631 527 l 631 0 l 491 0 l 238 502 l 238 151 q 238 121 242 112 q 246 104 255 99 q 265 94 288 94 l 321 94 l 321 0 l 38 0 l 38 94 l 67 94 q 92 94 101 98 q 110 103 115 113 q 121 123 121 144 l 121 534 q 121 557 116 567 q 111 578 103 582 q 94 587 75 587 l 38 587 z"},"+":{"x_min":0,"x_max":600,"ha":600,"o":"m 542 294 l 349 294 l 349 102 l 251 102 l 251 294 l 58 294 l 58 386 l 251 386 l 251 580 l 349 580 l 349 386 l 542 386 z"},"G":{"x_min":0,"x_max":780,"ha":780,"o":"m 439 363 l 771 363 l 771 268 l 747 268 q 722 268 713 264 q 704 259 700 250 q 695 240 695 213 l 695 0 l 595 0 l 569 49 q 523 19 474 3 q 425 -12 372 -12 q 278 -12 202 34 q 125 79 80 161 q 36 242 36 343 q 36 443 80 522 q 124 602 203 647 q 283 693 375 693 q 420 693 465 681 q 510 670 542 651 l 560 681 l 628 681 l 689 456 l 600 426 q 554 500 527 527 q 500 554 466 569 q 432 584 399 584 q 353 584 312 558 q 272 531 249 479 q 225 428 225 354 q 225 274 251 215 q 276 156 318 127 q 359 99 409 99 q 444 99 476 113 q 507 127 519 145 q 531 162 531 192 l 531 217 q 531 243 527 250 q 522 259 513 264 q 504 268 478 268 l 439 268 z"},"q":{"x_min":0,"x_max":620,"ha":620,"o":"m 539 487 l 539 -71 q 539 -102 542 -108 q 546 -116 555 -121 q 561 -124 591 -124 l 614 -124 l 614 -218 l 311 -218 l 311 -124 l 333 -124 q 363 -124 370 -121 q 376 -119 380 -112 q 383 -105 383 -81 l 383 31 q 343 7 312 -2 q 281 -12 247 -12 q 164 -12 107 55 q 41 131 41 240 q 41 314 71 375 q 102 436 152 467 q 203 499 261 499 q 295 499 328 488 q 361 478 408 448 l 434 487 z m 383 137 l 383 301 q 383 340 376 354 q 370 369 350 381 q 330 392 307 392 q 280 392 257 376 q 234 360 224 333 q 209 294 209 246 q 209 201 222 168 q 234 136 255 120 q 276 104 298 104 q 316 104 339 113 q 362 121 383 137 z"},"d":{"x_min":0,"x_max":640,"ha":640,"o":"m 543 717 l 543 149 q 543 115 546 108 q 549 101 556 98 q 563 94 594 94 l 617 94 l 617 0 l 405 -7 l 405 43 q 359 12 324 0 q 290 -12 255 -12 q 199 -12 152 19 q 104 49 74 109 q 44 169 44 243 q 44 317 75 377 q 105 438 155 468 q 204 499 264 499 q 295 499 324 491 q 353 484 387 465 l 387 581 l 316 581 l 316 675 q 376 681 414 690 q 452 699 496 717 z m 387 140 l 387 303 q 387 334 383 347 q 377 365 356 378 q 335 392 310 392 q 284 392 261 376 q 239 360 226 328 q 212 295 212 246 q 212 178 242 137 q 265 105 303 105 q 320 105 335 111 q 350 116 387 140 z"},"1":{"x_min":0,"x_max":660,"ha":660,"o":"m 434 693 l 434 158 q 434 124 437 117 q 441 104 452 99 q 463 94 494 94 l 562 94 l 562 0 l 142 0 l 142 94 l 211 94 q 248 94 258 99 q 268 104 273 114 q 278 125 278 158 l 278 540 l 142 540 l 142 634 q 200 640 231 646 q 278 656 331 672 q 360 681 386 693 z"},"5":{"x_min":0,"x_max":660,"ha":660,"o":"m 97 308 l 115 681 l 459 681 q 491 681 500 686 q 509 691 511 705 l 576 705 l 576 535 l 220 535 l 216 447 q 275 454 324 454 q 424 454 491 424 q 558 395 590 346 q 622 296 622 230 q 622 116 529 48 q 446 -12 328 -12 q 249 -12 185 15 q 122 42 91 83 q 60 124 60 165 q 60 197 82 219 q 104 242 136 242 q 159 242 178 229 q 197 216 211 187 q 231 146 249 127 q 266 109 289 99 q 312 89 340 89 q 377 89 407 104 q 437 119 452 145 q 467 170 467 204 q 467 260 420 295 q 373 330 271 330 q 180 330 97 308 z"}}}
